<svg id="Layer_1" data-name="Layer 1" xmlns="http://www.w3.org/2000/svg" viewBox="0 0 1151.14955 357.28193">
  <defs>
    <style>
      .cls-1, .cls-2 {
        fill: #1a1a1a;
      }

      .cls-1, .cls-3, .cls-4 {
        fill-rule: evenodd;
      }

      .cls-2, .cls-5 {
        font-size: 132.77512px;
        font-family: RussoOne-Regular, Russo One;
        letter-spacing: 0.145em;
      }

      .cls-3, .cls-5 {
        fill: #fff;
      }

      .cls-4 {
        fill: #ffa903;
      }
    </style>
  </defs>
  <title>Builderrine logo light</title>
  <g>
    <g>
      <polygon class="cls-1" points="588.534 96.632 521.359 42.665 443.116 43.296 302.674 154.587 235.558 154.587 242.087 158.499 277.154 158.499 312.218 158.499 450.118 48.922 509.509 96.632 586.825 158.499 665.849 158.499 588.534 96.632 588.534 96.632"/>
      <polygon class="cls-1" points="766.852 56.041 697.09 0 512.591 0 454.83 45.753 474.447 45.594 522.226 7.742 603.939 73.381 709.878 158.231 894.375 158.231 804.931 86.632 804.931 100.526 793.955 111.293 793.955 101.523 793.955 77.816 793.955 39.366 766.852 39.366 766.852 56.041 766.852 56.041"/>
      <path class="cls-1" d="M727.70972,377.27305H750.4115V399.9746H727.70972V377.27305Zm28.04205,0h22.6994V399.9746h-22.6994V377.27305Zm0,28.04182h22.6994v22.69964h-22.6994V405.31487Zm-28.04205,0H750.4115v22.69964H727.70972V405.31487Z" transform="translate(-302.95885 -269.51579)"/>
      <path class="cls-1" d="M615.17732,428.01451H309.93848v-8.28915H615.17732v8.28915Zm816.54419,0H1070.01173v-8.28915h361.70978v8.28915Z" transform="translate(-302.95885 -269.51579)"/>
      <path class="cls-1" d="M502.77768,611.14756V598.24679a20.20864,20.20864,0,0,1,1.27065-7.71115,10.91209,10.91209,0,0,1,3.6332-4.77775,14.69278,14.69278,0,0,1,5.76286-2.41331,41.40172,41.40172,0,0,1,8.17355-.6886h15.44445a60.73522,60.73522,0,0,1,11.16725.81707,13.63024,13.63024,0,0,1,6.27436,2.65905,8.91812,8.91812,0,0,1,2.82709,4.78657,35.79748,35.79748,0,0,1,.70862,7.97882H544.91083v-1.182a3.23879,3.23879,0,0,0-1.50733-3.08188,9.53415,9.53415,0,0,0-4.64738-.86808H524.4455a10.51258,10.51258,0,0,0-5.132,1.014,5.10233,5.10233,0,0,0-2.43333,2.85616,14.9598,14.9598,0,0,0-.63091,4.7687v4.64738a17.05151,17.05151,0,0,0,.61113,5.11168,4.484,4.484,0,0,0,2.21619,2.69,10.42961,10.42961,0,0,0,4.67813.83471h13.99647a27.91273,27.91273,0,0,0,3.90086-.20594,5.0229,5.0229,0,0,0,2.21619-.788,3.28283,3.28283,0,0,0,1.202-1.76237,11.4764,11.4764,0,0,0,.35443-3.19248h13.13769v4.06914a16.68174,16.68174,0,0,1-1.27113,6.85427,9.17642,9.17642,0,0,1-4.77775,4.49221c-2.34443,1.09356-5.58362,1.64272-9.74119,1.64272h-21.1544a40.13711,40.13711,0,0,1-8.07631-.71744,15.10121,15.10121,0,0,1-5.8601-2.43285,10.80045,10.80045,0,0,1-3.6332-4.75821,20.29728,20.29728,0,0,1-1.27065-7.74166Zm65.59885,0V598.24679a20.20864,20.20864,0,0,1,1.27065-7.71115,10.90242,10.90242,0,0,1,3.63558-4.77775,14.70455,14.70455,0,0,1,5.74975-2.41331,41.5976,41.5976,0,0,1,8.185-.6886h21.02784a34.71831,34.71831,0,0,1,10.42979,1.30855,11.28427,11.28427,0,0,1,6.2653,4.738q2.16876,3.42726,2.17663,9.54431v12.90077c0,4.09774-.73079,7.29928-2.17663,9.58387a11.22,11.22,0,0,1-6.2653,4.758,34.65811,34.65811,0,0,1-10.42979,1.30831H587.2175a40.075,40.075,0,0,1-8.07654-.71744,15.01989,15.01989,0,0,1-5.8582-2.43285,10.791,10.791,0,0,1-3.63558-4.75821,20.29728,20.29728,0,0,1-1.27065-7.74166Zm13.47425-8.74321v4.64738a16.98207,16.98207,0,0,0,.61113,5.11168,4.46768,4.46768,0,0,0,2.216,2.69,10.38408,10.38408,0,0,0,4.67812.83471H606.1376a10.41059,10.41059,0,0,0,4.68051-.83471,4.498,4.498,0,0,0,2.225-2.69,17.11454,17.11454,0,0,0,.59969-5.11168v-4.64738a15.02058,15.02058,0,0,0-.62877-4.7687,5.11963,5.11963,0,0,0-2.424-2.85616,10.63947,10.63947,0,0,0-5.17175-1.014H590.04435a10.48029,10.48029,0,0,0-5.12956,1.014,5.08467,5.08467,0,0,0-2.43309,2.85616,14.89888,14.89888,0,0,0-.63092,4.7687ZM637.86766,626.326v-43.1962h20.32876l24.641,31.367h.11751v-31.367h13.11958V626.326h-20.328l-24.64364-31.3692h-.1175V626.326Zm69.135-11.15819v-2.95555h13.11767a6.96186,6.96186,0,0,0,.61971,3.23013,2.80929,2.80929,0,0,0,1.73353,1.3505,13.39984,13.39984,0,0,0,3.31.31439h16.07323a10.04755,10.04755,0,0,0,4.10918-.6886,2.8536,2.8536,0,0,0,1.51663-2.90669,4.0134,4.0134,0,0,0-.53367-2.30272,3.74811,3.74811,0,0,0-2.28507-1.12454,30.01739,30.01739,0,0,0-4.93245-.48266q-3.17806-.1162-10.68887-.11727a97.84994,97.84994,0,0,1-11.89541-.55369,15.90254,15.90254,0,0,1-6.42309-1.95925,6.699,6.699,0,0,1-2.94412-3.7793,24.105,24.105,0,0,1-.71958-6.69934,31.77064,31.77064,0,0,1,.445-5.84033,8.6562,8.6562,0,0,1,2.10536-4.15566,10.797,10.797,0,0,1,5.19153-2.84711,36.59776,36.59776,0,0,1,9.51571-.99416h18.31611a35.15225,35.15225,0,0,1,8.84666.89453,11.05079,11.05079,0,0,1,5.00133,2.56157,7.80768,7.80768,0,0,1,2.17853,3.84127,24.97216,24.97216,0,0,1,.50268,5.47708V596.79h-13.1a7.29454,7.29454,0,0,0-.374-2.72984,2.62707,2.62707,0,0,0-1.71374-1.32833,14.96682,14.96682,0,0,0-4.28413-.44286H725.14386q-4.965,0-4.9639,3.36743a3.89257,3.89257,0,0,0,.50268,2.18735,3.19366,3.19366,0,0,0,1.979,1.06281,25.03664,25.03664,0,0,0,4.1957.434q2.7333.103,8.96178.09939,8.349,0,12.96274.41164a20.92056,20.92056,0,0,1,7.29737,1.76475,7.62562,7.62562,0,0,1,3.78145,4.03815,20.96661,20.96661,0,0,1,1.09355,7.61152,21.80211,21.80211,0,0,1-.92551,7.151,7.45508,7.45508,0,0,1-3.17246,3.95854,15.83643,15.83643,0,0,1-6.26316,1.89942,89.69689,89.69689,0,0,1-10.99015.52271h-15.8673a49.62669,49.62669,0,0,1-7.73116-.50245,13.14781,13.14781,0,0,1-5.121-1.81123,7.58742,7.58742,0,0,1-2.94673-3.57551,15.30415,15.30415,0,0,1-.9341-5.7407Zm61.76663-21.28478V583.12982H818.7626v10.75323H800.32707v32.443H787.207v-32.443Zm71.6966,0v10.46077h21.6988a5.25906,5.25906,0,0,0,3.75261-1.08474,4.64717,4.64717,0,0,0,1.10023-3.42726v-1.46776a5.24222,5.24222,0,0,0-.61972-2.81613,3.15474,3.15474,0,0,0-1.94852-1.31951,14.42033,14.42033,0,0,0-3.46706-.34537Zm-13.11767,32.443v-43.1962h39.603q7.15018,0,9.98717,3.248,2.81946,3.23776,2.8247,9.56409v2.73866a18.71893,18.71893,0,0,1-.59993,5.141,6.98165,6.98165,0,0,1-2.19593,3.42678,10.67194,10.67194,0,0,1-4.53225,2.05912v.10868a9.11836,9.11836,0,0,1,5.2802,2.63879q1.87665,2.03934,1.87082,6.94294V626.326H866.4684v-5.20035a10.57741,10.57741,0,0,0-.49338-3.60435,3.22512,3.22512,0,0,0-1.67395-1.862,7.55824,7.55824,0,0,0-3.20129-.56012H840.46593V626.326Zm64.13108-15.43326V583.12982h13.12v24.93586a13.32854,13.32854,0,0,0,.40282,3.53761,5.455,5.455,0,0,0,1.27089,2.34252,5.01194,5.01194,0,0,0,2.29365,1.31951,11.7291,11.7291,0,0,0,3.35861.42284h13.00255a10.11681,10.11681,0,0,0,4.31273-.74843,4.62885,4.62885,0,0,0,2.29581-2.40187,11.30877,11.30877,0,0,0,.7172-4.47218V583.12982h13.12v27.76294a18.94181,18.94181,0,0,1-1.86224,8.90219,11.51966,11.51966,0,0,1-5.80052,5.27162,24.69459,24.69459,0,0,1-9.88729,1.73115H909.03178a24.7373,24.7373,0,0,1-9.88968-1.73115,11.52251,11.52251,0,0,1-5.80052-5.27162,18.94181,18.94181,0,0,1-1.86224-8.90219Zm64.65617.2548V598.24679a20.20663,20.20663,0,0,1,1.26874-7.71115,10.89977,10.89977,0,0,1,3.6351-4.77775,14.69951,14.69951,0,0,1,5.76072-2.41331,41.406,41.406,0,0,1,8.17378-.6886h15.4447a60.76449,60.76449,0,0,1,11.16939.81707,13.63041,13.63041,0,0,1,6.27174,2.65905,8.90381,8.90381,0,0,1,2.82733,4.78657,35.66431,35.66431,0,0,1,.71076,7.97882H998.267v-1.182a3.24163,3.24163,0,0,0-1.50543-3.08188,9.5388,9.5388,0,0,0-4.64928-.86808H977.80142a10.51019,10.51019,0,0,0-5.1298,1.014,5.0851,5.0851,0,0,0-2.43333,2.85616,14.89284,14.89284,0,0,0-.63068,4.7687v4.64738a16.97545,16.97545,0,0,0,.61089,5.11168,4.47727,4.47727,0,0,0,2.216,2.69,10.419,10.419,0,0,0,4.67836.83471h13.99433a27.86017,27.86017,0,0,0,3.90062-.20594,5.014,5.014,0,0,0,2.21643-.788,3.26,3.26,0,0,0,1.202-1.76237,11.48553,11.48553,0,0,0,.35443-3.19248h13.13745v4.06914a16.72244,16.72244,0,0,1-1.2685,6.85427,9.19607,9.19607,0,0,1-4.77776,4.49221c-2.34442,1.09356-5.58338,1.64272-9.74118,1.64272h-21.1568a40.1253,40.1253,0,0,1-8.07391-.71744,15.10362,15.10362,0,0,1-5.86059-2.43285,10.78838,10.78838,0,0,1-3.6351-4.75821,20.29536,20.29536,0,0,1-1.26874-7.74166Zm63.412-17.26451V583.12982h49.993v10.75323H1051.1026v32.443h-13.11982v-32.443Zm59.28683,32.443v-43.1962H1091.952V626.326Zm24.58834-15.17846V598.24679a20.20348,20.20348,0,0,1,1.27089-7.71115,10.89969,10.89969,0,0,1,3.6351-4.77775,14.70343,14.70343,0,0,1,5.74951-2.41331,41.60268,41.60268,0,0,1,8.185-.6886h21.02832a34.71431,34.71431,0,0,1,10.42954,1.30855,11.28539,11.28539,0,0,1,6.26579,4.738q2.168,3.42726,2.17591,9.54431v12.90077c0,4.09774-.73055,7.29928-2.17591,9.58387a11.22111,11.22111,0,0,1-6.26579,4.758,34.65413,34.65413,0,0,1-10.42954,1.30831h-21.02832a40.07989,40.07989,0,0,1-8.07654-.71744,15.02029,15.02029,0,0,1-5.858-2.43285,10.78831,10.78831,0,0,1-3.6351-4.75821,20.2921,20.2921,0,0,1-1.27089-7.74166Zm13.47377-8.74321v4.64738a16.97286,16.97286,0,0,0,.61137,5.11168,4.4685,4.4685,0,0,0,2.21595,2.69,10.38732,10.38732,0,0,0,4.67837.83471h16.78161a10.40808,10.40808,0,0,0,4.68027-.83471,4.498,4.498,0,0,0,2.225-2.69,17.11337,17.11337,0,0,0,.59993-5.11168v-4.64738a15.03436,15.03436,0,0,0-.62877-4.7687,5.12188,5.12188,0,0,0-2.42428-2.85616,10.63942,10.63942,0,0,0-5.17175-1.014h-15.3739a10.47991,10.47991,0,0,0-5.12933,1.014,5.08651,5.08651,0,0,0-2.43357,2.85616,14.89891,14.89891,0,0,0-.63091,4.7687ZM1172.914,626.326v-43.1962h20.32828l24.64125,31.367h.11727v-31.367h13.11982V626.326h-20.32852l-24.64316-31.3692h-.11751V626.326Z" transform="translate(-302.95885 -269.51579)"/>
      <polygon class="cls-1" points="1134.014 339.356 951.658 339.356 951.658 331.067 1134.014 331.067 1134.014 339.356 1134.014 339.356"/>
      <polygon class="cls-1" points="184.084 339.356 1.728 339.356 1.728 331.067 184.084 331.067 184.084 339.356 184.084 339.356"/>
      <text class="cls-2" transform="translate(0.00014 281.28891)">BUILDERRINE</text>
    </g>
    <g>
      <polygon class="cls-3" points="588.534 96.632 521.359 42.665 443.116 43.296 302.674 154.587 235.558 154.587 242.087 158.499 277.154 158.499 312.218 158.499 450.118 48.922 509.509 96.632 586.825 158.499 665.849 158.499 588.534 96.632 588.534 96.632"/>
      <polygon class="cls-4" points="766.852 56.041 697.09 0 512.591 0 454.83 45.753 474.447 45.594 522.226 7.742 603.939 73.381 709.878 158.231 894.375 158.231 804.931 86.632 804.931 100.526 793.955 111.293 793.955 101.523 793.955 77.816 793.955 39.366 766.852 39.366 766.852 56.041 766.852 56.041"/>
      <path class="cls-4" d="M727.70972,377.27305H750.4115V399.9746H727.70972V377.27305Zm28.04205,0h22.6994V399.9746h-22.6994V377.27305Zm0,28.04182h22.6994v22.69964h-22.6994V405.31487Zm-28.04205,0H750.4115v22.69964H727.70972V405.31487Z" transform="translate(-302.95885 -269.51579)"/>
      <path class="cls-4" d="M615.17732,428.01451H309.93848v-8.28915H615.17732v8.28915Zm816.54419,0H1070.01173v-8.28915h361.70978v8.28915Z" transform="translate(-302.95885 -269.51579)"/>
      <path class="cls-3" d="M502.77768,611.14756V598.24679a20.20864,20.20864,0,0,1,1.27065-7.71115,10.91209,10.91209,0,0,1,3.6332-4.77775,14.69278,14.69278,0,0,1,5.76286-2.41331,41.40172,41.40172,0,0,1,8.17355-.6886h15.44445a60.73522,60.73522,0,0,1,11.16725.81707,13.63024,13.63024,0,0,1,6.27436,2.65905,8.91812,8.91812,0,0,1,2.82709,4.78657,35.79748,35.79748,0,0,1,.70862,7.97882H544.91083v-1.182a3.23879,3.23879,0,0,0-1.50733-3.08188,9.53415,9.53415,0,0,0-4.64738-.86808H524.4455a10.51258,10.51258,0,0,0-5.132,1.014,5.10233,5.10233,0,0,0-2.43333,2.85616,14.9598,14.9598,0,0,0-.63091,4.7687v4.64738a17.05151,17.05151,0,0,0,.61113,5.11168,4.484,4.484,0,0,0,2.21619,2.69,10.42961,10.42961,0,0,0,4.67813.83471h13.99647a27.91273,27.91273,0,0,0,3.90086-.20594,5.0229,5.0229,0,0,0,2.21619-.788,3.28283,3.28283,0,0,0,1.202-1.76237,11.4764,11.4764,0,0,0,.35443-3.19248h13.13769v4.06914a16.68174,16.68174,0,0,1-1.27113,6.85427,9.17642,9.17642,0,0,1-4.77775,4.49221c-2.34443,1.09356-5.58362,1.64272-9.74119,1.64272h-21.1544a40.13711,40.13711,0,0,1-8.07631-.71744,15.10121,15.10121,0,0,1-5.8601-2.43285,10.80045,10.80045,0,0,1-3.6332-4.75821,20.29728,20.29728,0,0,1-1.27065-7.74166Zm65.59885,0V598.24679a20.20864,20.20864,0,0,1,1.27065-7.71115,10.90242,10.90242,0,0,1,3.63558-4.77775,14.70455,14.70455,0,0,1,5.74975-2.41331,41.5976,41.5976,0,0,1,8.185-.6886h21.02784a34.71831,34.71831,0,0,1,10.42979,1.30855,11.28427,11.28427,0,0,1,6.2653,4.738q2.16876,3.42726,2.17663,9.54431v12.90077c0,4.09774-.73079,7.29928-2.17663,9.58387a11.22,11.22,0,0,1-6.2653,4.758,34.65811,34.65811,0,0,1-10.42979,1.30831H587.2175a40.075,40.075,0,0,1-8.07654-.71744,15.01989,15.01989,0,0,1-5.8582-2.43285,10.791,10.791,0,0,1-3.63558-4.75821,20.29728,20.29728,0,0,1-1.27065-7.74166Zm13.47425-8.74321v4.64738a16.98207,16.98207,0,0,0,.61113,5.11168,4.46768,4.46768,0,0,0,2.216,2.69,10.38408,10.38408,0,0,0,4.67812.83471H606.1376a10.41059,10.41059,0,0,0,4.68051-.83471,4.498,4.498,0,0,0,2.225-2.69,17.11454,17.11454,0,0,0,.59969-5.11168v-4.64738a15.02058,15.02058,0,0,0-.62877-4.7687,5.11963,5.11963,0,0,0-2.424-2.85616,10.63947,10.63947,0,0,0-5.17175-1.014H590.04435a10.48029,10.48029,0,0,0-5.12956,1.014,5.08467,5.08467,0,0,0-2.43309,2.85616,14.89888,14.89888,0,0,0-.63092,4.7687ZM637.86766,626.326v-43.1962h20.32876l24.641,31.367h.11751v-31.367h13.11958V626.326h-20.328l-24.64364-31.3692h-.1175V626.326Zm69.135-11.15819v-2.95555h13.11767a6.96186,6.96186,0,0,0,.61971,3.23013,2.80929,2.80929,0,0,0,1.73353,1.3505,13.39984,13.39984,0,0,0,3.31.31439h16.07323a10.04755,10.04755,0,0,0,4.10918-.6886,2.8536,2.8536,0,0,0,1.51663-2.90669,4.0134,4.0134,0,0,0-.53367-2.30272,3.74811,3.74811,0,0,0-2.28507-1.12454,30.01739,30.01739,0,0,0-4.93245-.48266q-3.17806-.1162-10.68887-.11727a97.84994,97.84994,0,0,1-11.89541-.55369,15.90254,15.90254,0,0,1-6.42309-1.95925,6.699,6.699,0,0,1-2.94412-3.7793,24.105,24.105,0,0,1-.71958-6.69934,31.77064,31.77064,0,0,1,.445-5.84033,8.6562,8.6562,0,0,1,2.10536-4.15566,10.797,10.797,0,0,1,5.19153-2.84711,36.59776,36.59776,0,0,1,9.51571-.99416h18.31611a35.15225,35.15225,0,0,1,8.84666.89453,11.05079,11.05079,0,0,1,5.00133,2.56157,7.80768,7.80768,0,0,1,2.17853,3.84127,24.97216,24.97216,0,0,1,.50268,5.47708V596.79h-13.1a7.29454,7.29454,0,0,0-.374-2.72984,2.62707,2.62707,0,0,0-1.71374-1.32833,14.96682,14.96682,0,0,0-4.28413-.44286H725.14386q-4.965,0-4.9639,3.36743a3.89257,3.89257,0,0,0,.50268,2.18735,3.19366,3.19366,0,0,0,1.979,1.06281,25.03664,25.03664,0,0,0,4.1957.434q2.7333.103,8.96178.09939,8.349,0,12.96274.41164a20.92056,20.92056,0,0,1,7.29737,1.76475,7.62562,7.62562,0,0,1,3.78145,4.03815,20.96661,20.96661,0,0,1,1.09355,7.61152,21.80211,21.80211,0,0,1-.92551,7.151,7.45508,7.45508,0,0,1-3.17246,3.95854,15.83643,15.83643,0,0,1-6.26316,1.89942,89.69689,89.69689,0,0,1-10.99015.52271h-15.8673a49.62669,49.62669,0,0,1-7.73116-.50245,13.14781,13.14781,0,0,1-5.121-1.81123,7.58742,7.58742,0,0,1-2.94673-3.57551,15.30415,15.30415,0,0,1-.9341-5.7407Zm61.76663-21.28478V583.12982H818.7626v10.75323H800.32707v32.443H787.207v-32.443Zm71.6966,0v10.46077h21.6988a5.25906,5.25906,0,0,0,3.75261-1.08474,4.64717,4.64717,0,0,0,1.10023-3.42726v-1.46776a5.24222,5.24222,0,0,0-.61972-2.81613,3.15474,3.15474,0,0,0-1.94852-1.31951,14.42033,14.42033,0,0,0-3.46706-.34537Zm-13.11767,32.443v-43.1962h39.603q7.15018,0,9.98717,3.248,2.81946,3.23776,2.8247,9.56409v2.73866a18.71893,18.71893,0,0,1-.59993,5.141,6.98165,6.98165,0,0,1-2.19593,3.42678,10.67194,10.67194,0,0,1-4.53225,2.05912v.10868a9.11836,9.11836,0,0,1,5.2802,2.63879q1.87665,2.03934,1.87082,6.94294V626.326H866.4684v-5.20035a10.57741,10.57741,0,0,0-.49338-3.60435,3.22512,3.22512,0,0,0-1.67395-1.862,7.55824,7.55824,0,0,0-3.20129-.56012H840.46593V626.326Zm64.13108-15.43326V583.12982h13.12v24.93586a13.32854,13.32854,0,0,0,.40282,3.53761,5.455,5.455,0,0,0,1.27089,2.34252,5.01194,5.01194,0,0,0,2.29365,1.31951,11.7291,11.7291,0,0,0,3.35861.42284h13.00255a10.11681,10.11681,0,0,0,4.31273-.74843,4.62885,4.62885,0,0,0,2.29581-2.40187,11.30877,11.30877,0,0,0,.7172-4.47218V583.12982h13.12v27.76294a18.94181,18.94181,0,0,1-1.86224,8.90219,11.51966,11.51966,0,0,1-5.80052,5.27162,24.69459,24.69459,0,0,1-9.88729,1.73115H909.03178a24.7373,24.7373,0,0,1-9.88968-1.73115,11.52251,11.52251,0,0,1-5.80052-5.27162,18.94181,18.94181,0,0,1-1.86224-8.90219Zm64.65617.2548V598.24679a20.20663,20.20663,0,0,1,1.26874-7.71115,10.89977,10.89977,0,0,1,3.6351-4.77775,14.69951,14.69951,0,0,1,5.76072-2.41331,41.406,41.406,0,0,1,8.17378-.6886h15.4447a60.76449,60.76449,0,0,1,11.16939.81707,13.63041,13.63041,0,0,1,6.27174,2.65905,8.90381,8.90381,0,0,1,2.82733,4.78657,35.66431,35.66431,0,0,1,.71076,7.97882H998.267v-1.182a3.24163,3.24163,0,0,0-1.50543-3.08188,9.5388,9.5388,0,0,0-4.64928-.86808H977.80142a10.51019,10.51019,0,0,0-5.1298,1.014,5.0851,5.0851,0,0,0-2.43333,2.85616,14.89284,14.89284,0,0,0-.63068,4.7687v4.64738a16.97545,16.97545,0,0,0,.61089,5.11168,4.47727,4.47727,0,0,0,2.216,2.69,10.419,10.419,0,0,0,4.67836.83471h13.99433a27.86017,27.86017,0,0,0,3.90062-.20594,5.014,5.014,0,0,0,2.21643-.788,3.26,3.26,0,0,0,1.202-1.76237,11.48553,11.48553,0,0,0,.35443-3.19248h13.13745v4.06914a16.72244,16.72244,0,0,1-1.2685,6.85427,9.19607,9.19607,0,0,1-4.77776,4.49221c-2.34442,1.09356-5.58338,1.64272-9.74118,1.64272h-21.1568a40.1253,40.1253,0,0,1-8.07391-.71744,15.10362,15.10362,0,0,1-5.86059-2.43285,10.78838,10.78838,0,0,1-3.6351-4.75821,20.29536,20.29536,0,0,1-1.26874-7.74166Zm63.412-17.26451V583.12982h49.993v10.75323H1051.1026v32.443h-13.11982v-32.443Zm59.28683,32.443v-43.1962H1091.952V626.326Zm24.58834-15.17846V598.24679a20.20348,20.20348,0,0,1,1.27089-7.71115,10.89969,10.89969,0,0,1,3.6351-4.77775,14.70343,14.70343,0,0,1,5.74951-2.41331,41.60268,41.60268,0,0,1,8.185-.6886h21.02832a34.71431,34.71431,0,0,1,10.42954,1.30855,11.28539,11.28539,0,0,1,6.26579,4.738q2.168,3.42726,2.17591,9.54431v12.90077c0,4.09774-.73055,7.29928-2.17591,9.58387a11.22111,11.22111,0,0,1-6.26579,4.758,34.65413,34.65413,0,0,1-10.42954,1.30831h-21.02832a40.07989,40.07989,0,0,1-8.07654-.71744,15.02029,15.02029,0,0,1-5.858-2.43285,10.78831,10.78831,0,0,1-3.6351-4.75821,20.2921,20.2921,0,0,1-1.27089-7.74166Zm13.47377-8.74321v4.64738a16.97286,16.97286,0,0,0,.61137,5.11168,4.4685,4.4685,0,0,0,2.21595,2.69,10.38732,10.38732,0,0,0,4.67837.83471h16.78161a10.40808,10.40808,0,0,0,4.68027-.83471,4.498,4.498,0,0,0,2.225-2.69,17.11337,17.11337,0,0,0,.59993-5.11168v-4.64738a15.03436,15.03436,0,0,0-.62877-4.7687,5.12188,5.12188,0,0,0-2.42428-2.85616,10.63942,10.63942,0,0,0-5.17175-1.014h-15.3739a10.47991,10.47991,0,0,0-5.12933,1.014,5.08651,5.08651,0,0,0-2.43357,2.85616,14.89891,14.89891,0,0,0-.63091,4.7687ZM1172.914,626.326v-43.1962h20.32828l24.64125,31.367h.11727v-31.367h13.11982V626.326h-20.32852l-24.64316-31.3692h-.11751V626.326Z" transform="translate(-302.95885 -269.51579)"/>
      <polygon class="cls-4" points="1134.014 339.356 951.658 339.356 951.658 331.067 1134.014 331.067 1134.014 339.356 1134.014 339.356"/>
      <polygon class="cls-4" points="184.084 339.356 1.728 339.356 1.728 331.067 184.084 331.067 184.084 339.356 184.084 339.356"/>
      <text class="cls-5" transform="translate(0.00014 281.28891)">BUILDERRINE</text>
    </g>
  </g>
</svg>
